<svg width="300" height="350" xmlns="http://www.w3.org/2000/svg">
  <defs>
    <pattern id="qr-pattern" x="0" y="0" width="10" height="10" patternUnits="userSpaceOnUse">
      <rect width="10" height="10" fill="#ffffff"/>
      <rect width="5" height="5" fill="#000000"/>
      <rect x="5" y="5" width="5" height="5" fill="#000000"/>
    </pattern>
  </defs>
  
  <!-- Background -->
  <rect width="300" height="300" fill="#ffffff" stroke="#000000" stroke-width="2"/>
  
  <!-- QR Code Pattern -->
  <rect x="20" y="20" width="260" height="260" fill="url(#qr-pattern)"/>
  
  <!-- Corner squares -->
  <rect x="20" y="20" width="60" height="60" fill="#000000"/>
  <rect x="30" y="30" width="40" height="40" fill="#ffffff"/>
  <rect x="40" y="40" width="20" height="20" fill="#000000"/>
  
  <rect x="220" y="20" width="60" height="60" fill="#000000"/>
  <rect x="230" y="30" width="40" height="40" fill="#ffffff"/>
  <rect x="240" y="40" width="20" height="20" fill="#000000"/>
  
  <rect x="20" y="220" width="60" height="60" fill="#000000"/>
  <rect x="30" y="230" width="40" height="40" fill="#ffffff"/>
  <rect x="40" y="240" width="20" height="20" fill="#000000"/>
  
  <!-- Text below QR -->
  <text x="150" y="320" text-anchor="middle" font-family="Arial, sans-serif" font-size="12" fill="#333">
    UPI ID: saravanasachin286-1@okhdfcbank
  </text>
  <text x="150" y="340" text-anchor="middle" font-family="Arial, sans-serif" font-size="10" fill="#666">
    Saravana Sachin
  </text>
</svg>